<?xml version="1.0" encoding="UTF-8"?>
<svg version="1.1" xmlns="http://www.w3.org/2000/svg" width="512" height="512">
<path d="M0 0 C0.89229309 0.00054382 1.78458618 0.00108765 2.70391846 0.00164795 C71.65447122 0.19336898 146.80365948 23.30622006 197.07275391 71.99462891 C198.41586018 73.29362358 199.77577542 74.57517391 201.13671875 75.85546875 C208.01238009 82.47207848 213.79374229 89.75704295 219.5 97.375 C219.93344727 97.94766602 220.36689453 98.52033203 220.81347656 99.11035156 C227.57130392 108.08150827 233.26083395 117.44653039 238.5 127.375 C238.85336426 128.04321777 239.20672852 128.71143555 239.57080078 129.39990234 C254.71962124 158.29241501 262.32573695 189.41565564 264.125 221.9375 C264.16512207 222.65591064 264.20524414 223.37432129 264.24658203 224.11450195 C266.85305288 278.78371256 257.72124665 337.71629638 234.5 387.375 C234.16500488 388.09864746 233.83000977 388.82229492 233.48486328 389.56787109 C212.19060347 435.1560301 175.10530896 467.54745127 128.140625 485.02734375 C100.09981918 495.04437757 70.27796034 498.48045456 40.63671875 498.578125 C39.95156504 498.58095238 39.26641132 498.58377975 38.56049538 498.58669281 C34.91736111 498.60156071 31.27426501 498.6108619 27.63110352 498.61523438 C24.70258776 498.61956745 21.77437523 498.63327351 18.84594727 498.65625 C-45.63256054 499.15107133 -101.954087 488.88461028 -155.5 451.375 C-156.13518555 450.93333496 -156.77037109 450.49166992 -157.42480469 450.03662109 C-171.89831734 439.8559605 -184.34824899 426.8230552 -194.5 412.375 C-194.90379883 411.80491211 -195.30759766 411.23482422 -195.72363281 410.64746094 C-211.9341877 387.61406923 -224.0233606 362.18516046 -232.5 335.375 C-232.78359375 334.48280762 -233.0671875 333.59061523 -233.359375 332.67138672 C-253.74646636 267.57934678 -248.35327806 196.92589205 -217 136.3125 C-212.37507971 127.60871876 -207.26466949 119.36529647 -201.5 111.375 C-201.01885742 110.70597656 -200.53771484 110.03695312 -200.04199219 109.34765625 C-193.94916209 100.93132245 -187.58651598 92.98440453 -180.5 85.375 C-179.32858546 84.02493836 -178.1617058 82.67092486 -177 81.3125 C-169.84210165 73.13673537 -162.00558839 66.11736993 -153.5 59.375 C-152.42761957 58.50093877 -151.35602952 57.6259071 -150.28515625 56.75 C-121.4087256 33.32511739 -85.34555686 15.01124198 -48.06665039 10.62548828 C-42.99402585 9.90819767 -40.81767375 8.18004884 -37.5 4.375 C-27.97802035 -1.97298643 -11.08743225 -0.02558579 0 0 Z " fill="#FEDD00" transform="translate(246.5,6.625)"/>
<path d="M0 0 C0.89229309 0.00054382 1.78458618 0.00108765 2.70391846 0.00164795 C71.65447122 0.19336898 146.80365948 23.30622006 197.07275391 71.99462891 C198.41586018 73.29362358 199.77577542 74.57517391 201.13671875 75.85546875 C208.01238009 82.47207848 213.79374229 89.75704295 219.5 97.375 C219.93344727 97.94766602 220.36689453 98.52033203 220.81347656 99.11035156 C227.57130392 108.08150827 233.26083395 117.44653039 238.5 127.375 C238.85336426 128.04321777 239.20672852 128.71143555 239.57080078 129.39990234 C254.71962124 158.29241501 262.32573695 189.41565564 264.125 221.9375 C264.16512207 222.65591064 264.20524414 223.37432129 264.24658203 224.11450195 C266.85305288 278.78371256 257.72124665 337.71629638 234.5 387.375 C234.16500488 388.09864746 233.83000977 388.82229492 233.48486328 389.56787109 C212.19060347 435.1560301 175.10530896 467.54745127 128.140625 485.02734375 C100.09981918 495.04437757 70.27796034 498.48045456 40.63671875 498.578125 C39.95156504 498.58095238 39.26641132 498.58377975 38.56049538 498.58669281 C34.91736111 498.60156071 31.27426501 498.6108619 27.63110352 498.61523438 C24.70258776 498.61956745 21.77437523 498.63327351 18.84594727 498.65625 C-45.63256054 499.15107133 -101.954087 488.88461028 -155.5 451.375 C-156.13518555 450.93333496 -156.77037109 450.49166992 -157.42480469 450.03662109 C-171.89831734 439.8559605 -184.34824899 426.8230552 -194.5 412.375 C-194.90379883 411.80491211 -195.30759766 411.23482422 -195.72363281 410.64746094 C-211.9341877 387.61406923 -224.0233606 362.18516046 -232.5 335.375 C-232.78359375 334.48280762 -233.0671875 333.59061523 -233.359375 332.67138672 C-253.74646636 267.57934678 -248.35327806 196.92589205 -217 136.3125 C-212.37507971 127.60871876 -207.26466949 119.36529647 -201.5 111.375 C-201.01885742 110.70597656 -200.53771484 110.03695312 -200.04199219 109.34765625 C-193.94916209 100.93132245 -187.58651598 92.98440453 -180.5 85.375 C-179.32858546 84.02493836 -178.1617058 82.67092486 -177 81.3125 C-169.84210165 73.13673537 -162.00558839 66.11736993 -153.5 59.375 C-152.42761957 58.50093877 -151.35602952 57.6259071 -150.28515625 56.75 C-121.4087256 33.32511739 -85.34555686 15.01124198 -48.06665039 10.62548828 C-42.99402585 9.90819767 -40.81767375 8.18004884 -37.5 4.375 C-27.97802035 -1.97298643 -11.08743225 -0.02558579 0 0 Z M-1.3125 38.3125 C-5.10747398 42.12550236 -8.12744682 42.50671646 -13.43359375 42.76953125 C-64.0040589 45.56197444 -106.71066177 63.36952073 -143.5 98.375 C-144.35198975 99.18396729 -144.35198975 99.18396729 -145.22119141 100.00927734 C-183.433087 136.55290008 -207.68080407 187.84973883 -209.62768555 240.85107422 C-210.92497746 301.24861937 -193.08795597 363.71048628 -151.21850586 408.64355469 C-125.55126552 435.29598598 -88.56077581 452.30269695 -52.5 458.375 C-51.67693359 458.51534668 -50.85386719 458.65569336 -50.00585938 458.80029297 C-43.85565299 459.82412144 -37.69270066 460.65403608 -31.5 461.375 C-30.6028125 461.48086426 -29.705625 461.58672852 -28.78125 461.69580078 C33.46352149 468.5912451 107.89682827 468.02127973 159.5390625 427.94580078 C179.27129346 412.13937971 192.83350349 392.09036159 203.5 369.375 C204.01175781 368.31539063 204.52351563 367.25578125 205.05078125 366.1640625 C217.50605469 338.97060836 222.84395876 308.83400217 226.5 279.375 C226.68006592 277.98474609 226.68006592 277.98474609 226.86376953 276.56640625 C229.89647702 252.5216911 230.44795942 226.32118843 226.5 202.375 C226.32259277 201.22765381 226.32259277 201.22765381 226.14160156 200.05712891 C219.5102966 158.37102482 197.57401317 117.17933068 164.5 90.375 C163.54222656 89.56804687 162.58445312 88.76109375 161.59765625 87.9296875 C132.19277371 63.5962865 96.14008028 51.10334949 59.5 42.375 C58.65840332 42.16504395 57.81680664 41.95508789 56.94970703 41.73876953 C26.38090762 33.61285724 26.38090762 33.61285724 -1.3125 38.3125 Z " fill="#000000" transform="translate(246.5,6.625)"/>
<path d="M0 0 C4.19355618 2.46581103 7.14326416 4.72887136 8.75 9.4375 C12.27591115 40.39093155 -1.20236804 72.77543156 -19.9453125 96.82177734 C-23.3712692 101.06447596 -27.04540223 105.05430923 -30.83789062 108.96972656 C-32.25091877 110.43845498 -33.63366552 111.93175258 -35.015625 113.4296875 C-61.3605593 141.46269963 -99.02069771 155.18870042 -136.25 160.4375 C-136.94125977 160.54280029 -137.63251953 160.64810059 -138.34472656 160.7565918 C-161.78474281 163.9128543 -187.20670354 162.19918573 -210.25 157.4375 C-211.15830566 157.25026367 -212.06661133 157.06302734 -213.00244141 156.87011719 C-237.64367589 151.59668353 -261.75047153 142.78644964 -281.25 126.4375 C-282.14589844 125.715625 -283.04179687 124.99375 -283.96484375 124.25 C-304.84196744 106.51792364 -318.53612708 79.98767644 -324.25 53.4375 C-324.45238281 52.62023437 -324.65476562 51.80296875 -324.86328125 50.9609375 C-326.38029287 43.79899148 -326.58476894 36.54613946 -326.75 29.25 C-326.79278076 28.22817627 -326.83556152 27.20635254 -326.87963867 26.15356445 C-326.94529288 18.72982002 -325.22690863 14.00197647 -320.25 8.4375 C-315.58153469 5.01395877 -310.85995343 4.60076118 -305.25 5.4375 C-299.03159245 7.30970872 -295.31297602 10.77165166 -292.25 16.4375 C-291.24312532 19.45812403 -291.10387124 22.0265135 -291.01098633 25.18603516 C-290.16152158 51.93429734 -281.32349339 76.32957792 -262.25 95.4375 C-261.63898438 96.06011719 -261.02796875 96.68273437 -260.3984375 97.32421875 C-236.05565535 120.37217207 -195.89737703 125.65770467 -163.9375 125.6875 C-163.18666138 125.68850708 -162.43582275 125.68951416 -161.66223145 125.69055176 C-144.30745442 125.67485276 -127.78657153 124.0518864 -111.25 118.4375 C-110.00347656 118.02886719 -108.75695312 117.62023437 -107.47265625 117.19921875 C-92.78729444 112.17676316 -78.86156724 104.79985101 -67.25 94.4375 C-66.04537109 93.42816406 -66.04537109 93.42816406 -64.81640625 92.3984375 C-44.70440711 75.14165196 -31.19166348 51.72536334 -27.25 25.4375 C-27.08036829 23.14747193 -26.93388345 20.8555917 -26.8125 18.5625 C-26.41419743 12.26625558 -25.18748964 7.50571562 -20.7578125 2.87890625 C-14.71103166 -2.43082916 -7.32632553 -3.25305536 0 0 Z " fill="#020100" transform="translate(421.25,256.5625)"/>
<path d="M0 0 C5.88539006 3.33063875 9.84816547 7.79406077 12.625 13.9375 C13.25 16.625 13.25 16.625 13.625 19.9375 C13.70234375 20.60910156 13.7796875 21.28070313 13.859375 21.97265625 C14.27913469 28.58387133 12.2488829 33.45841976 8.625 38.9375 C3.33502304 44.59654512 -4.11322263 48.00544427 -11.875 48.5 C-19.19735897 48.09895207 -25.34224726 44.41934499 -30.3125 39.1875 C-34.95234977 33.35485866 -37.08512851 26.72580464 -36.78515625 19.265625 C-35.54868784 12.24719477 -31.82450814 6.3909023 -26.17578125 2.12109375 C-18.06143608 -3.21219602 -8.88864477 -4.06223132 0 0 Z " fill="#020200" transform="translate(346.375,189.0625)"/>
<path d="M0 0 C6.57181183 3.35365655 12.70564596 9.17651464 15.3984375 16.16015625 C16.47056048 25.12084723 15.80430998 32.7662299 10.3984375 40.16015625 C5.912122 45.17928832 0.63601686 48.57251042 -6.13671875 49.51171875 C-13.30850026 49.89502072 -18.73442957 48.31105302 -24.6015625 44.16015625 C-29.80299107 39.38254778 -33.15909087 34.88287429 -34.0078125 27.7421875 C-34.22106814 19.16753362 -33.48381004 12.84218306 -27.6015625 6.16015625 C-19.98407098 -0.88936441 -9.96940497 -3.21835145 0 0 Z " fill="#020200" transform="translate(194.6015625,187.83984375)"/>
</svg>
