<?xml version="1.0" encoding="UTF-8"?>
<svg version="1.1" xmlns="http://www.w3.org/2000/svg" width="512" height="512">
<path d="M0 0 C0.69496582 0.29245605 1.38993164 0.58491211 2.10595703 0.88623047 C16.9579709 7.26391953 30.73202765 15.4424661 43 26 C45.69655774 24.72235317 48.05775822 23.32260578 50.44140625 21.53125 C86.05952802 -4.73831783 128.5623108 -16.25986764 172.62890625 -10.43359375 C210.89786021 -4.64301074 246.73585804 15.91873187 270 47 C270.88365234 48.16015625 270.88365234 48.16015625 271.78515625 49.34375 C286.35205995 69.25295779 294.65675051 91.84931971 299 116 C299.25910156 117.35375732 299.25910156 117.35375732 299.5234375 118.73486328 C300.0561585 122.38476628 300.19750224 125.97192978 300.23828125 129.65234375 C300.24802979 130.38088562 300.25777832 131.10942749 300.26782227 131.86004639 C300.44562769 148.61687392 300.0533339 164.63678764 296 181 C295.81808105 181.75684082 295.63616211 182.51368164 295.44873047 183.29345703 C283.73674 230.67520937 251.99826888 271.328742 219.46516418 306.41386414 C218.08351234 307.90959244 216.71088904 309.41364618 215.33886719 310.91821289 C208.27387224 318.66061897 200.99533288 326.16105238 193.57128906 333.55908203 C191.7338424 335.39110995 189.9018835 337.22850605 188.0703125 339.06640625 C182.78470699 344.35504363 177.50794874 349.58743238 171.81152344 354.43798828 C168.34925351 357.42337952 165.06518389 360.60343025 161.75 363.75 C154.89108937 370.23262991 147.97320391 376.64066823 141 383 C139.959149 383.9565022 138.91879573 384.91354628 137.87890625 385.87109375 C132.96692171 390.39237826 128.03626593 394.88348723 122.9921875 399.2578125 C120.63979365 401.31500399 118.31965034 403.40596915 116 405.5 C112.37976277 408.76704335 108.73016435 411.99520776 105.05078125 415.1953125 C102.73911203 417.22958141 100.4646857 419.3022231 98.1875 421.375 C94.72469918 424.50422827 91.19320997 427.50500349 87.5625 430.4375 C83.75912497 433.51336588 80.09917348 436.68753166 76.5 440 C54.31125637 460.35287041 54.31125637 460.35287041 42 460 C33.56151722 459.01251797 27.72739835 453.94657045 21.5625 448.5625 C20.9634082 448.04389404 20.36431641 447.52528809 19.74707031 446.9909668 C18.47809844 445.8918819 17.21038119 444.79134697 15.94384766 443.68945312 C14.00188054 442.00163443 12.05448861 440.32029198 10.10546875 438.640625 C4.6052099 433.89548055 -0.87645506 429.1389056 -6.25 424.25 C-9.50010013 421.2992512 -12.82617333 418.49702373 -16.25 415.75 C-22.01441228 411.08941135 -27.38851953 406.06220719 -32.79296875 400.99609375 C-37.4639332 396.61883286 -42.29747541 392.4485711 -47.171875 388.30078125 C-53.51125767 382.8991979 -59.77453077 377.4436205 -65.88842773 371.78735352 C-68.49446254 369.37665142 -71.12124004 367.00256233 -73.8125 364.6875 C-78.44987969 360.66972845 -82.89687559 356.44805234 -87.37255859 352.25244141 C-90.8619974 348.98471924 -94.3691874 345.74439634 -97.9375 342.5625 C-127.05455457 316.4824892 -127.05455457 316.4824892 -139.2734375 302.0078125 C-141.11128682 299.87058501 -143.01740892 297.80368772 -144.93579102 295.73876953 C-168.39279899 270.45533804 -189.41186551 240.71756459 -201 208 C-201.25378418 207.28650391 -201.50756836 206.57300781 -201.76904297 205.83789062 C-207.81109544 188.54499092 -212.09329892 170.14639366 -212.203125 151.7578125 C-212.20882507 150.99056854 -212.21452515 150.22332458 -212.22039795 149.43283081 C-212.22978725 147.81428375 -212.23635756 146.19571809 -212.24023438 144.57714844 C-212.24983811 142.16565064 -212.28087646 139.75504489 -212.3125 137.34375 C-212.58413581 97.28962834 -196.19503611 59.90864438 -168.40478516 31.36132812 C-145.13606401 8.2130235 -112.76613849 -7.74010357 -80 -11 C-78.906875 -11.12117188 -77.81375 -11.24234375 -76.6875 -11.3671875 C-50.73264949 -13.70084731 -24.06165532 -10.14266018 0 0 Z M13 116 C13 136.46 13 156.92 13 178 C-7.46 178 -27.92 178 -49 178 C-49 198.13 -49 218.26 -49 239 C-28.54 239 -8.08 239 13 239 C13 259.46 13 279.92 13 301 C33.46 301 53.92 301 75 301 C75 280.54 75 260.08 75 239 C95.46 239 115.92 239 137 239 C137 218.87 137 198.74 137 178 C116.54 178 96.08 178 75 178 C75 157.54 75 137.08 75 116 C54.54 116 34.08 116 13 116 Z " fill="#000000" transform="translate(212,32)"/>
</svg>
