<?xml version="1.0" encoding="UTF-8"?>
<svg version="1.1" xmlns="http://www.w3.org/2000/svg" width="512" height="512">
<path d="M0 0 C21.11632034 16.35543217 34.6718555 39.04891924 38.986166 65.42345238 C39.85156103 72.72107019 39.70821809 80.04865019 39.6965332 87.38793945 C39.70088854 89.20771492 39.7060744 91.02748856 39.71202087 92.84725952 C39.72533437 97.75857738 39.72599807 102.66981792 39.72345757 107.58115029 C39.72238256 111.69604832 39.72728477 115.81093105 39.732063 119.92582577 C39.74313192 129.64188719 39.74361046 139.35790995 39.73754883 149.07397461 C39.73151197 159.06348429 39.74381881 169.05285302 39.7651189 179.04233867 C39.7827908 187.64997159 39.78872744 196.25755987 39.78548115 204.86521024 C39.78367691 209.99246286 39.78621796 215.11961494 39.80019569 220.24685097 C39.81286062 225.07247157 39.81074883 229.89787404 39.79778481 234.72349167 C39.79543815 236.48295227 39.79808414 238.24242864 39.80640793 240.00187111 C39.9194866 265.785916 32.89295345 288.85940292 16.421875 309.09765625 C15.72191406 309.96390625 15.02195312 310.83015625 14.30078125 311.72265625 C-1.80294747 330.63345694 -25.18026668 341.79186298 -49.578125 345.09765625 C-53.50003318 345.37665513 -57.39722855 345.43214683 -61.328125 345.41015625 C-62.37726074 345.4052417 -63.42639648 345.40032715 -64.50732422 345.39526367 C-87.80372805 345.04565626 -110.07340653 336.45214114 -127.578125 321.09765625 C-128.69574219 320.19466797 -128.69574219 320.19466797 -129.8359375 319.2734375 C-148.37383045 303.86825468 -159.63793048 279.69957458 -162.578125 256.09765625 C-162.67227245 253.46929192 -162.72598924 250.86743763 -162.72529602 248.23979187 C-162.72897271 247.47880324 -162.7326494 246.7178146 -162.7364375 245.93376571 C-162.74739603 243.3994403 -162.75130484 240.86515601 -162.75512695 238.33081055 C-162.76139777 236.50678886 -162.76804511 234.68276844 -162.77503967 232.85874939 C-162.79601771 226.8798002 -162.80643966 220.90085095 -162.81640625 214.921875 C-162.82045684 212.85598042 -162.82457386 210.79008598 -162.82875633 208.72419167 C-162.84779822 199.01081771 -162.86202854 189.29745129 -162.8703683 179.58406228 C-162.88012207 168.4110927 -162.90639715 157.23832222 -162.94686919 146.06542271 C-162.97715088 137.40519767 -162.99184874 128.74502929 -162.99514931 120.08475238 C-162.99748701 114.92430283 -163.00627859 109.76406618 -163.03161049 104.60367393 C-163.05510662 99.73868419 -163.05903907 94.87404427 -163.04884911 90.00901222 C-163.04835874 88.23790438 -163.0545288 86.46677803 -163.06840515 84.69572449 C-163.29109417 54.55046049 -152.78493812 29.17148821 -132.015625 7.09765625 C-96.35603263 -27.6868541 -39.16141354 -28.89637635 0 0 Z " fill="#000000" transform="translate(317.578125,19.90234375)"/>
<path d="M0 0 C5.02093145 2.81132704 8.02621181 6.07150785 9.921875 11.625 C10.81382112 15.3805626 11.08196415 18.71044162 11.1875 22.5625 C12.50433173 50.58746555 22.7810854 76.96090349 40.8125 98.375 C41.53050781 99.24511719 42.24851562 100.11523438 42.98828125 101.01171875 C63.62886758 125.04837961 94.17361616 140.48866564 125.71826172 143.22998047 C160.32851979 145.62663392 193.22562582 135.87482696 219.8125 113.375 C220.63621094 112.68664062 221.45992187 111.99828125 222.30859375 111.2890625 C245.81404359 90.97389993 261.48336728 60.33522203 263.98242188 29.26220703 C264.10785634 27.15442558 264.21493688 25.04674531 264.3125 22.9375 C264.73189257 15.0078739 265.08311275 8.49780056 271.1875 2.9375 C275.85247293 -0.57827292 279.71476333 -2.11804488 285.6953125 -1.9375 C291.02401813 -1.15097518 294.81613271 1.44361319 298.6875 5.0625 C306.87514261 17.82558995 302.01099879 37.56604839 299.16796875 51.578125 C295.61134055 67.5979876 289.96632304 83.12816934 281.8125 97.375 C281.44962891 98.01808105 281.08675781 98.66116211 280.71289062 99.32373047 C259.13731201 137.06242543 223.15126048 164.32560257 181.43261719 176.04345703 C173.21152109 178.23309102 165.33174706 179.52307529 156.8125 180.375 C156.8125 195.885 156.8125 211.395 156.8125 227.375 C161.55625 227.34019531 166.3 227.30539062 171.1875 227.26953125 C174.2044395 227.25419088 177.22133047 227.23974822 180.23828125 227.22851562 C185.02012195 227.21062728 189.80178925 227.18953415 194.58349609 227.14868164 C198.44144585 227.11592995 202.29920947 227.09811391 206.1572876 227.09036827 C207.62439908 227.08485298 209.09150112 227.07408327 210.55853271 227.05780983 C219.61240183 226.9614309 226.80409351 227.14736026 234.625 232.1875 C238.92533063 236.48783063 240.03382762 240.26984133 240.3125 246.25 C240.14900457 251.97944854 239.00240463 256.32322409 234.8125 260.375 C229.70045569 263.75926314 226.45540922 264.87624666 220.1910553 264.8896637 C219.08799149 264.90008199 219.08799149 264.90008199 217.96264356 264.91071075 C215.51522698 264.92890792 213.06878777 264.91873743 210.62133789 264.90844727 C208.85990172 264.91550946 207.09847161 264.92425574 205.33705139 264.93455505 C200.56425394 264.95702523 195.79178848 264.95411484 191.01895833 264.94523358 C187.03038651 264.94011743 183.04187672 264.94742137 179.05331129 264.95470566 C169.64201221 264.97169718 160.2308753 264.96814637 150.81958008 264.95141602 C141.11905502 264.9344942 131.41897993 264.95033178 121.71850401 264.9826389 C113.38111804 265.00935158 105.043872 265.01660629 96.70644754 265.00812382 C91.73074667 265.00319965 86.75531652 265.00538264 81.77964973 265.02591133 C77.1000621 265.04429485 72.42112072 265.03827719 67.74156761 265.01371193 C66.02755173 265.00871255 64.31348639 265.01217112 62.59951019 265.02486038 C46.97708514 265.13134004 46.97708514 265.13134004 41.19771481 260.74563503 C36.67139949 256.26696045 35.55597165 252.66676905 35.25 246.4375 C35.46793964 240.63304101 36.75186556 236.58790823 40.8125 232.375 C46.40771841 228.0911609 51.54293038 227.24855344 58.41699219 227.26147461 C59.39810219 227.26125557 59.39810219 227.26125557 60.39903259 227.2610321 C62.55251426 227.26172659 64.70590852 227.26949717 66.859375 227.27734375 C68.35581414 227.27920958 69.85225388 227.28063271 71.34869385 227.28163147 C75.28108415 227.28544365 79.21343732 227.29526283 83.14581299 227.30633545 C87.86735772 227.31837929 92.58891488 227.322958 97.31047058 227.32878876 C104.47783951 227.33847529 111.64512704 227.35764092 118.8125 227.375 C118.8125 211.865 118.8125 196.355 118.8125 180.375 C113.5325 179.715 108.2525 179.055 102.8125 178.375 C97.03004841 177.05384384 91.4319405 175.25823638 85.8125 173.375 C85.15282227 173.15859863 84.49314453 172.94219727 83.81347656 172.71923828 C43.5013378 159.30526876 9.6337176 129.27582117 -9.5 91.4375 C-19.47366741 70.90332878 -25.51659675 48.74056249 -26.875 25.9375 C-26.93494141 25.12990234 -26.99488281 24.32230469 -27.05664062 23.49023438 C-27.45255896 16.75962263 -27.21416415 9.87077798 -22.5 4.5625 C-16.34374596 -1.96640864 -8.12014594 -3.6479603 0 0 Z " fill="#000000" transform="translate(118.1875,247.625)"/>
</svg>
