<?xml version="1.0" encoding="UTF-8"?>
<svg version="1.1" xmlns="http://www.w3.org/2000/svg" width="512" height="512">
<path d="M0 0 C0.72148224 -0.00067474 1.44296448 -0.00134949 2.18630981 -0.00204468 C74.37404634 0.10412689 149.7579684 25.40561619 201.875 76.3125 C206.79352038 81.35137569 211.20980066 86.72109792 215.5625 92.25 C216.34238281 93.20132813 217.12226563 94.15265625 217.92578125 95.1328125 C260.16333122 147.81186207 269.24896413 215.16240568 262.32684326 280.47344971 C255.35260285 341.8154847 237.20628274 411.84493977 186.5625 452.25 C122.0081825 502.51428058 36.71253939 505.28622896 -41.62719727 495.93334961 C-69.55357513 492.4146156 -95.57407353 486.74656855 -120.4375 473.25 C-121.08106445 472.90743164 -121.72462891 472.56486328 -122.38769531 472.21191406 C-147.01099672 459.07377263 -171.42711425 442.6780771 -188.4375 420.25 C-188.87449219 419.67733398 -189.31148437 419.10466797 -189.76171875 418.51464844 C-196.18591008 410.06152833 -202.07302297 401.42325572 -207.4375 392.25 C-207.78490234 391.67266113 -208.13230469 391.09532227 -208.49023438 390.50048828 C-243.03549796 333.05425777 -254.5108472 258.70633006 -238.78076172 193.52880859 C-228.26996418 152.38442164 -208.2904586 116.05243906 -179.68359375 84.71875 C-178.18047401 83.06662535 -176.69347974 81.39969113 -175.22265625 79.71875 C-157.95489013 60.05352601 -135.55955183 44.31789925 -112.4375 32.25 C-111.73882812 31.88165039 -111.04015625 31.51330078 -110.3203125 31.13378906 C-91.5091918 21.34623394 -71.17636655 14.38069175 -50.21411133 11.09667969 C-44.41891796 10.09340235 -41.14945935 8.69138638 -36.91748047 4.58911133 C-34.93718028 2.79730226 -33.24741759 2.30830181 -30.625 1.9375 C-29.87605469 1.81761719 -29.12710938 1.69773437 -28.35546875 1.57421875 C-27.39253906 1.46722656 -26.42960938 1.36023438 -25.4375 1.25 C-24.77435791 1.1660498 -24.11121582 1.08209961 -23.42797852 0.99560547 C-15.63286566 0.09015755 -7.84018152 0.00664451 0 0 Z " fill="#FEDD00" transform="translate(246.4375,6.75)"/>
<path d="M0 0 C0.72148224 -0.00067474 1.44296448 -0.00134949 2.18630981 -0.00204468 C74.37404634 0.10412689 149.7579684 25.40561619 201.875 76.3125 C206.79352038 81.35137569 211.20980066 86.72109792 215.5625 92.25 C216.34238281 93.20132813 217.12226563 94.15265625 217.92578125 95.1328125 C260.16333122 147.81186207 269.24896413 215.16240568 262.32684326 280.47344971 C255.35260285 341.8154847 237.20628274 411.84493977 186.5625 452.25 C122.0081825 502.51428058 36.71253939 505.28622896 -41.62719727 495.93334961 C-69.55357513 492.4146156 -95.57407353 486.74656855 -120.4375 473.25 C-121.08106445 472.90743164 -121.72462891 472.56486328 -122.38769531 472.21191406 C-147.01099672 459.07377263 -171.42711425 442.6780771 -188.4375 420.25 C-188.87449219 419.67733398 -189.31148437 419.10466797 -189.76171875 418.51464844 C-196.18591008 410.06152833 -202.07302297 401.42325572 -207.4375 392.25 C-207.78490234 391.67266113 -208.13230469 391.09532227 -208.49023438 390.50048828 C-243.03549796 333.05425777 -254.5108472 258.70633006 -238.78076172 193.52880859 C-228.26996418 152.38442164 -208.2904586 116.05243906 -179.68359375 84.71875 C-178.18047401 83.06662535 -176.69347974 81.39969113 -175.22265625 79.71875 C-157.95489013 60.05352601 -135.55955183 44.31789925 -112.4375 32.25 C-111.73882812 31.88165039 -111.04015625 31.51330078 -110.3203125 31.13378906 C-91.5091918 21.34623394 -71.17636655 14.38069175 -50.21411133 11.09667969 C-44.41891796 10.09340235 -41.14945935 8.69138638 -36.91748047 4.58911133 C-34.93718028 2.79730226 -33.24741759 2.30830181 -30.625 1.9375 C-29.87605469 1.81761719 -29.12710938 1.69773437 -28.35546875 1.57421875 C-27.39253906 1.46722656 -26.42960938 1.36023438 -25.4375 1.25 C-24.77435791 1.1660498 -24.11121582 1.08209961 -23.42797852 0.99560547 C-15.63286566 0.09015755 -7.84018152 0.00664451 0 0 Z M-4.21069336 40.89160156 C-7.92687729 43.15855117 -11.43616167 43.01139896 -15.6875 42.9375 C-17.45198608 42.96995793 -19.21633715 43.01059017 -20.98046875 43.05859375 C-21.88071777 43.08163574 -22.7809668 43.10467773 -23.70849609 43.12841797 C-63.950341 44.92126452 -103.39045543 62.92260565 -133.4375 89.25 C-134.23929687 89.94222656 -135.04109375 90.63445312 -135.8671875 91.34765625 C-176.15067071 126.80484354 -205.16456051 177.4287884 -209.15625 231.60546875 C-212.64849526 292.88765718 -196.74794743 357.18988786 -155.33789062 403.95092773 C-145.21809081 415.14516236 -134.23709228 423.41192215 -121.4375 431.25 C-120.72078125 431.69021484 -120.0040625 432.13042969 -119.265625 432.58398438 C-75.79583312 459.1180088 -29.15753761 463.48780356 20.9375 463.4375 C22.1383725 463.43656342 23.339245 463.43562683 24.57650757 463.43466187 C64.93151813 463.36632915 104.61440092 460.45105008 140.5625 440.25 C141.50246826 439.73832275 141.50246826 439.73832275 142.46142578 439.21630859 C152.55528218 433.69771687 161.12213354 427.04153962 169.5625 419.25 C170.32175781 418.56164062 171.08101563 417.87328125 171.86328125 417.1640625 C181.51363943 407.99718919 188.95810378 396.72079344 195.5625 385.25 C196.54863281 383.56003906 196.54863281 383.56003906 197.5546875 381.8359375 C229.76806511 325.09619844 238.58733622 241.95814674 221.5625 179.25 C213.61351561 150.73532926 198.47882292 125.15369263 178.046875 103.80175781 C177.04189676 102.75115885 176.04202573 101.69565466 175.046875 100.63574219 C136.32240952 59.49099761 70.71674173 37.65682559 15.35131836 35.68676758 C14.4103833 35.66638428 13.46944824 35.64600098 12.5 35.625 C11.62674072 35.58979248 10.75348145 35.55458496 9.85375977 35.51831055 C3.72460448 35.53081052 0.6561169 37.300764 -4.21069336 40.89160156 Z " fill="#000000" transform="translate(246.4375,6.75)"/>
<path d="M0 0 C1.42956066 -0.00378601 2.85911765 -0.00928838 4.28866577 -0.01637268 C8.16064739 -0.03030801 12.03218369 -0.01917133 15.90414047 -0.00266147 C19.96124347 0.01121388 24.01832127 0.00472613 28.07543945 0.00120544 C34.88793086 -0.00149472 41.70024588 0.01196218 48.51269531 0.03515625 C56.38237736 0.06176483 64.25176455 0.06351239 72.12147617 0.05176789 C79.70019353 0.04097861 87.27880451 0.04718619 94.85751343 0.06132317 C98.07907636 0.06707301 101.30056119 0.06700819 104.52212524 0.06225777 C108.31761854 0.05747595 112.11279007 0.06763917 115.9082222 0.08921242 C117.29894552 0.09476411 118.68969986 0.09526045 120.08042526 0.09025955 C121.98290453 0.08427773 123.885415 0.09868514 125.7878418 0.11402893 C127.3828376 0.11767377 127.3828376 0.11767377 129.01005554 0.12139225 C135.07163204 0.88940612 139.10871644 3.94820629 143.01171875 8.50170898 C145.3481981 12.61836309 145.67894537 16.8653394 145.01171875 21.50170898 C143.2637489 27.49790937 140.28154129 30.55238528 134.9140625 33.59155273 C131.25074801 35.34422681 128.36383356 35.63217968 124.35188293 35.64888 C123.1729245 35.65603531 121.99396606 35.66319061 120.77928162 35.67056274 C119.48418167 35.67325165 118.18908173 35.67594055 116.85473633 35.67871094 C115.47812733 35.68497696 114.10152002 35.69162389 112.72491455 35.69862366 C108.20203832 35.7196532 103.6791618 35.73002627 99.15625 35.73999023 C97.59781057 35.74403846 96.03937131 35.7481554 94.48093224 35.75234032 C87.15746347 35.77139102 79.83400477 35.78562126 72.51051599 35.79395229 C64.06486202 35.80371908 55.61947052 35.83002436 47.17390901 35.87045318 C40.64129124 35.90064826 34.10874856 35.91542444 27.57606238 35.9187333 C23.67675261 35.92108029 19.77772327 35.9299944 15.87848854 35.95519447 C12.20695732 35.97853934 8.5358899 35.98268303 4.86430359 35.97243309 C2.88342812 35.9717046 0.90257588 35.99075152 -1.07820129 36.01049805 C-8.1979073 35.96906003 -12.96108743 35.3960368 -18.98828125 31.50170898 C-23.16135748 27.21881496 -25.04921277 23.12270695 -25.42578125 17.18920898 C-25.29734463 12.05174414 -23.45196723 8.26343306 -19.98828125 4.50170898 C-14.19065733 -0.91111724 -7.54078717 -0.05677682 0 0 Z " fill="#030300" transform="translate(197.98828125,325.498291015625)"/>
<path d="M0 0 C5.88539006 3.33063875 9.84816547 7.79406077 12.625 13.9375 C13.25 16.625 13.25 16.625 13.625 19.9375 C13.70234375 20.60910156 13.7796875 21.28070313 13.859375 21.97265625 C14.27913469 28.58387133 12.2488829 33.45841976 8.625 38.9375 C3.33502304 44.59654512 -4.11322263 48.00544427 -11.875 48.5 C-19.19735897 48.09895207 -25.34224726 44.41934499 -30.3125 39.1875 C-34.95234977 33.35485866 -37.08512851 26.72580464 -36.78515625 19.265625 C-35.54868784 12.24719477 -31.82450814 6.3909023 -26.17578125 2.12109375 C-18.06143608 -3.21219602 -8.88864477 -4.06223132 0 0 Z " fill="#020200" transform="translate(346.375,189.0625)"/>
<path d="M0 0 C6.57181183 3.35365655 12.70564596 9.17651464 15.3984375 16.16015625 C16.47056048 25.12084723 15.80430998 32.7662299 10.3984375 40.16015625 C5.912122 45.17928832 0.63601686 48.57251042 -6.13671875 49.51171875 C-13.30850026 49.89502072 -18.73442957 48.31105302 -24.6015625 44.16015625 C-29.80299107 39.38254778 -33.15909087 34.88287429 -34.0078125 27.7421875 C-34.22106814 19.16753362 -33.48381004 12.84218306 -27.6015625 6.16015625 C-19.98407098 -0.88936441 -9.96940497 -3.21835145 0 0 Z " fill="#020200" transform="translate(194.6015625,187.83984375)"/>
</svg>
