<?xml version="1.0" encoding="UTF-8"?>
<svg version="1.1" xmlns="http://www.w3.org/2000/svg" width="512" height="512">
<path d="M0 0 C0.89460938 0.70253906 1.78921875 1.40507812 2.7109375 2.12890625 C10.88622028 8.6379657 18.44584632 15.79116616 26 23 C26.79792969 23.75539063 27.59585937 24.51078125 28.41796875 25.2890625 C32.8699465 29.6077475 36.78618036 34.26465443 40.66015625 39.10546875 C42.19891977 41.00901428 43.76881857 42.88787778 45.37109375 44.73828125 C57.00284539 58.19389155 66.20188902 73.3938367 74.82958984 88.90087891 C75.56381628 90.21770805 76.30525651 91.53056825 77.05712891 92.83740234 C77.95545863 94.40024994 78.82274453 95.98082783 79.6875 97.5625 C80.14511719 98.38878906 80.60273438 99.21507812 81.07421875 100.06640625 C83.14509509 106.62855025 82.68762641 112.19099989 79.76171875 118.41015625 C78.76053051 120.30689057 77.73463953 122.19074206 76.6875 124.0625 C76.14496582 125.064021 75.60243164 126.06554199 75.04345703 127.09741211 C70.1361077 136.03146904 64.77611841 144.60661164 59 153 C58.58540527 153.61133789 58.17081055 154.22267578 57.74365234 154.85253906 C51.44378094 164.11632142 44.45903631 172.64869956 37 181 C36.51853516 181.53931152 36.03707031 182.07862305 35.54101562 182.63427734 C27.19355946 191.94117851 18.61566054 200.98694955 9 209 C8.24686523 209.63180176 8.24686523 209.63180176 7.47851562 210.27636719 C-51.26832176 259.30029595 -126.16901408 281.0936582 -202.0625 274.68359375 C-254.72252687 269.77769701 -306.81042269 249.36244739 -348 216 C-348.89460938 215.29746094 -349.78921875 214.59492188 -350.7109375 213.87109375 C-358.88622028 207.3620343 -366.44584632 200.20883384 -374 193 C-374.79792969 192.24460937 -375.59585938 191.48921875 -376.41796875 190.7109375 C-380.8699465 186.3922525 -384.78618036 181.73534557 -388.66015625 176.89453125 C-390.19891977 174.99098572 -391.76881857 173.11212222 -393.37109375 171.26171875 C-405.00284539 157.80610845 -414.20188902 142.6061633 -422.82958984 127.09912109 C-423.56381628 125.78229195 -424.30525651 124.46943175 -425.05712891 123.16259766 C-425.95545863 121.59975006 -426.82274453 120.01917217 -427.6875 118.4375 C-428.14511719 117.61121094 -428.60273438 116.78492188 -429.07421875 115.93359375 C-431.14509509 109.37144975 -430.68762641 103.80900011 -427.76171875 97.58984375 C-426.76053051 95.69310943 -425.73463953 93.80925794 -424.6875 91.9375 C-423.87369873 90.43521851 -423.87369873 90.43521851 -423.04345703 88.90258789 C-418.1361077 79.96853096 -412.77611841 71.39338836 -407 63 C-406.58540527 62.38866211 -406.17081055 61.77732422 -405.74365234 61.14746094 C-399.44378094 51.88367858 -392.45903631 43.35130044 -385 35 C-384.51853516 34.46068848 -384.03707031 33.92137695 -383.54101562 33.36572266 C-375.19355946 24.05882149 -366.61566054 15.01305045 -357 7 C-356.24686523 6.36819824 -356.24686523 6.36819824 -355.47851562 5.72363281 C-278.49014074 -58.52276365 -167.53436868 -78.93901345 0 0 Z M-249 21 C-249.74765625 21.6084375 -250.4953125 22.216875 -251.265625 22.84375 C-258.29627517 28.64526552 -263.64722776 35.68319987 -269 43 C-269.65097656 43.88429687 -270.30195313 44.76859375 -270.97265625 45.6796875 C-287.76434737 70.2361014 -292.22930037 101.49696333 -286.96875 130.33203125 C-280.67058988 161.95946549 -261.99990962 186.96207283 -235.8125 205.22265625 C-210.91185805 221.37694772 -180.38982883 226.65477147 -151.375 220.96875 C-121.36118974 214.55237007 -96.98240479 197.75785262 -79 173 C-78.35160156 172.11828125 -77.70320312 171.2365625 -77.03515625 170.328125 C-60.23476577 145.79422144 -55.74291154 114.46677055 -61.04296875 85.6484375 C-64.92839028 66.17731373 -73.45892038 47.65266078 -87 33 C-87.6084375 32.25234375 -88.216875 31.5046875 -88.84375 30.734375 C-106.39991044 9.45868904 -134.79828287 -3.42585309 -161.75 -6.625 C-193.1839166 -9.31793678 -225.50792151 -0.70992081 -249 21 Z " fill="#000000" transform="translate(430,148)"/>
<path d="M0 0 C16.11374142 12.70037666 27.03511137 29.37995048 29.96484375 49.86328125 C31.82425554 71.96662388 27.34024003 91.10100988 13.65234375 108.73828125 C1.88633798 122.24517563 -15.0491989 132.49941257 -33.03515625 134.86328125 C-56.69306962 136.14817629 -76.73678939 131.59754575 -95.03515625 115.86328125 C-108.48332959 103.29407349 -117.57425719 85.11228859 -118.37109375 66.63671875 C-118.74525047 44.34270332 -113.70765912 25.54178937 -98.03515625 8.86328125 C-72.10714489 -17.34253023 -30.24498317 -21.29215675 0 0 Z " fill="#000000" transform="translate(300.03515625,195.13671875)"/>
</svg>
